<?xml version="1.0" standalone="no"?>
<!DOCTYPE svg PUBLIC "-//W3C//DTD SVG 20010904//EN"
 "http://www.w3.org/TR/2001/REC-SVG-20010904/DTD/svg10.dtd">
<svg version="1.0" xmlns="http://www.w3.org/2000/svg"
 width="300.000000pt" height="300.000000pt" viewBox="0 0 300.000000 300.000000"
 preserveAspectRatio="xMidYMid meet">
<metadata>
Created by potrace 1.10, written by Peter Selinger 2001-2011
</metadata>
<g transform="translate(0.000000,300.000000) scale(0.100000,-0.100000)"
fill="#000000" stroke="none">
<path d="M1405 2557 c-33 -19 -267 -141 -520 -272 -253 -130 -487 -252 -520
-270 -33 -18 -115 -60 -181 -94 -67 -34 -127 -68 -134 -76 -16 -19 -4 -25 410
-240 190 -98 395 -204 455 -235 495 -259 558 -290 585 -290 18 0 110 42 237
109 114 59 285 148 378 196 94 49 264 137 378 197 114 59 211 108 215 108 4 0
6 -63 4 -140 l-3 -140 -30 0 -30 0 3 -147 3 -148 93 -3 92 -3 0 151 0 150 -30
0 -30 0 0 160 0 160 52 26 c101 51 131 74 118 89 -7 8 -62 40 -124 71 -61 31
-147 76 -191 99 -44 23 -269 140 -500 260 -231 119 -461 239 -511 266 -110 59
-137 61 -219 16z m249 -73 c72 -37 136 -70 141 -74 6 -4 80 -43 165 -87 85
-45 283 -147 440 -228 453 -235 480 -249 480 -261 0 -6 -25 -23 -54 -37 -32
-16 -62 -39 -72 -56 -15 -25 -22 -29 -45 -24 -29 6 -73 -16 -714 -352 -323
-169 -476 -245 -495 -245 -20 0 -160 70 -485 240 -49 26 -171 89 -270 140 -99
51 -216 112 -260 135 -44 23 -138 73 -210 110 -126 65 -164 90 -154 99 4 4 90
49 364 191 94 48 197 102 230 120 33 18 141 74 240 126 99 51 257 132 350 181
94 48 181 88 194 88 13 0 82 -30 155 -66z m1123 -1106 c21 -19 23 -30 23 -112
0 -50 -4 -97 -8 -104 -10 -14 -70 -14 -89 1 -9 6 -13 39 -13 100 0 79 3 94 22
114 27 29 36 29 65 1z"/>
<path d="M2505 1452 c-5 -6 -136 -81 -290 -168 -154 -86 -359 -202 -455 -256
-96 -55 -194 -104 -217 -111 -78 -20 -41 -38 -763 371 l-265 150 -3 -241 -2
-242 29 -60 c38 -77 123 -163 228 -232 140 -91 301 -154 488 -189 132 -25 380
-25 514 0 323 60 613 226 712 408 l34 63 3 205 c4 245 1 315 -13 302z m-28
-273 c1 -107 -2 -211 -8 -231 -13 -51 -89 -149 -157 -202 -126 -100 -314 -184
-507 -227 -115 -25 -364 -34 -480 -18 -292 41 -573 177 -707 340 -62 77 -67
99 -68 297 -1 233 -2 222 12 222 10 0 187 -96 368 -200 203 -117 478 -269 499
-275 41 -13 93 -12 135 1 23 6 232 120 466 252 234 132 430 239 435 238 6 -2
11 -78 12 -197z"/>
</g>
</svg>
